<svg xmlns="http://www.w3.org/2000/svg" viewBox="0 0 2296.05 434.05"><defs><style>.cls-1{fill:#fc6554;}.cls-2{fill:#d11313;}.cls-3{fill:#ef3a35;}</style></defs><title>资源 12</title><g id="图层_2" data-name="图层 2"><g id="图层_1-2" data-name="图层 1"><g id="_编组_" data-name="&lt;编组&gt;"><path id="_复合路径_" data-name="&lt;复合路径&gt;" class="cls-1" d="M188,5.77l183,105.63V322.65L188,428.28,5,322.65V111.4L188,5.77M188,0,0,108.51v217L188,434.05l188-108.51v-217L188,0Z"/><g id="_编组_2" data-name="&lt;编组&gt;"><polygon id="_路径_" data-name="&lt;路径&gt;" class="cls-2" points="300.85 286.24 187.95 351.42 187.95 408.64 350.4 314.86 300.85 286.24"/><polygon id="_路径_2" data-name="&lt;路径&gt;" class="cls-2" points="304.34 153.87 304.34 280.18 353.9 308.79 353.9 125.26 304.34 153.87"/></g><g id="_编组_3" data-name="&lt;编组&gt;"><polygon id="_路径_3" data-name="&lt;路径&gt;" class="cls-1" points="75.06 147.81 187.95 82.63 300.84 147.81 350.4 119.19 187.95 25.4 25.5 119.19 75.06 147.81"/><polygon id="_路径_4" data-name="&lt;路径&gt;" class="cls-1" points="22 121.21 22 121.21 22 121.21 22 121.21"/></g><g id="_编组_4" data-name="&lt;编组&gt;"><g id="_编组_5" data-name="&lt;编组&gt;"><polygon class="cls-2" points="187.95 328.68 284.65 272.85 284.65 161.2 187.95 217.03 187.95 328.68"/></g><g id="_编组_6" data-name="&lt;编组&gt;"><polygon class="cls-1" points="91.25 161.2 187.95 105.37 284.65 161.2 187.95 217.03 91.25 161.2"/></g><g id="_编组_7" data-name="&lt;编组&gt;"><polygon class="cls-3" points="187.95 328.68 91.25 272.85 91.25 161.2 187.95 217.03 187.95 328.68"/></g></g><g id="_编组_8" data-name="&lt;编组&gt;"><polygon id="_路径_5" data-name="&lt;路径&gt;" class="cls-3" points="22 308.8 71.56 280.19 71.56 153.87 22 125.25 22 308.8"/><polygon id="_路径_6" data-name="&lt;路径&gt;" class="cls-3" points="75.06 286.25 25.5 314.86 187.95 408.65 187.95 351.42 75.06 286.25"/></g></g><g id="_编组_9" data-name="&lt;编组&gt;"><path id="_复合路径_2" data-name="&lt;复合路径&gt;" class="cls-1" d="M570,328.68q-1.59-2.3-5.45-8.46l-19.37-30.84q-6.45-10.32-11.61-18.22l-30-47.33V328.68H447.19V108.37h56.37v95.24l61.67-95.24H624L552.61,212.93a41.32,41.32,0,0,0,2.87,4.73l7.6,11.76q4.45,6.75,11,16.64l54.36,82.62Z"/><path id="_复合路径_3" data-name="&lt;复合路径&gt;" class="cls-1" d="M645.41,262.56V172.05h49.06v99.4q0,14.78,14.06,17.93a56.76,56.76,0,0,0,9.46.29,45,45,0,0,0,21.09-6.75l.28-110.87h48.77V328.68H748l-2.44-4.16c-.29-.57-.53-1.1-.72-1.58a38.56,38.56,0,0,1-1.29-4l-14.2,6.16a91.1,91.1,0,0,1-12.91,3.59,95.11,95.11,0,0,1-16.35,2q-16.77.85-27-3-13.07-5-21.8-18.94Q645.41,296.56,645.41,262.56Z"/><path id="_复合路径_4" data-name="&lt;复合路径&gt;" class="cls-1" d="M948.49,237v15.63q0,38.16-5.59,47.19-1.87,6-10.33,14.49-17.79,16.35-60.24,16.35a343.09,343.09,0,0,1-64-6.46V108.65l48.19-8.46v75.45a116.67,116.67,0,0,1,19.36-4.59,100.71,100.71,0,0,1,15.35-1.29q41.44,0,51.64,21.8Q948.5,200.46,948.49,237ZM900,228.28q0-14.64-13.48-17.65h-7.32a43.39,43.39,0,0,0-22.66,6.46v73.15l17.93.86q20.79,0,24.38-13.48a31.75,31.75,0,0,0,1.15-9.47Z"/><path id="_复合路径_5" data-name="&lt;复合路径&gt;" class="cls-1" d="M1105,236.45v27.83H1017.2V269q0,15.93,9.75,19.37a63.4,63.4,0,0,0,17.21,2.15H1048a261.47,261.47,0,0,0,52.93-5.6h.29v39.3q0,.72-24.67,4.74a325.14,325.14,0,0,1-35.57,1.72q-51.64,0-66.7-34.86A75.86,75.86,0,0,1,968.72,267V229.42q0-41.31,34.71-54.93a104.86,104.86,0,0,1,32.84-5q48.63,0,63.11,31.7Q1105,213.65,1105,236.45Zm-48.48-7.31q0-16.35-7-19.37a22.52,22.52,0,0,0-12.91-3.58q-19.37,0-19.36,18.21v7.32h39.3Z"/><path id="_复合路径_6" data-name="&lt;复合路径&gt;" class="cls-1" d="M1316.11,211.5v14.34q0,38.73-7,54.07-11.17,26.25-34.42,38.44-22.23,12.06-56.08,12t-56.09-12q-23.52-12.77-34.42-38.44-7.32-15.92-7.32-54.07V211.5q0-46.77,12.63-63.83a72.87,72.87,0,0,1,29.11-28.12q22.38-12.33,56.09-12.33,33.56,0,56.08,12.33,17.64,9.46,29.12,28.12Q1316.11,165.31,1316.11,211.5Zm-97.53,74.58q26.67-.43,33.85-10.61,8.17-6.6,8.17-38.16V203.89q0-36.85-9.18-42.6-8.75-8.88-32.84-9.75-24.11.86-32.85,9.75-10.34,6.47-10.33,41.31v33.85q0,31.71,9,39Q1191.61,285.65,1218.58,286.08Z"/><path id="_复合路径_7" data-name="&lt;复合路径&gt;" class="cls-1" d="M1331,171.48h40l.86,3.3a21.35,21.35,0,0,1,.86,3.72c.09.48.19,1.06.28,1.73l.29,1.57a128.56,128.56,0,0,1,12.91-5.88,86.93,86.93,0,0,1,15.35-4.44,70.4,70.4,0,0,1,36,1.57,42.89,42.89,0,0,1,19.22,12.63,43.94,43.94,0,0,1,5.45,7.46l1.87,3.29c.47,1,.95,2,1.43,3a83.2,83.2,0,0,1,4.3,18.07,218.14,218.14,0,0,1,1.58,29.26V262q0,35.14-5.88,45.62-9.33,21.94-51.35,21.94a114,114,0,0,1-14.06-.86l-10.9-2a71,71,0,0,1-9.75-3v67l-48.48,8.9Zm48.48,110.44q12.2,6.75,22.66,6.74l7-.28q13.48-3,13.48-17.5V234.44c0-4.39-.38-7.65-1.14-9.75q-4.3-14.62-23.81-11.47l-5.31.86-9.18,2.58-3.73,1.29Z"/><path id="_复合路径_8" data-name="&lt;复合路径&gt;" class="cls-1" d="M1628.51,236.45v27.83h-87.78V269q0,15.93,9.75,19.37a63.48,63.48,0,0,0,17.22,2.15h3.87a261.62,261.62,0,0,0,52.93-5.6h.28v39.3q0,.72-24.67,4.74a325,325,0,0,1-35.57,1.72q-51.63,0-66.7-34.86a75.86,75.86,0,0,1-5.59-28.83V229.42q0-41.31,34.71-54.93a104.92,104.92,0,0,1,32.85-5q48.62,0,63.11,31.7Q1628.52,213.65,1628.51,236.45ZM1580,229.14q0-16.35-7-19.37a22.52,22.52,0,0,0-12.91-3.58q-19.36,0-19.36,18.21v7.32H1580Z"/><path id="_复合路径_9" data-name="&lt;复合路径&gt;" class="cls-1" d="M1745.7,169.47l4.73,41.45a77.25,77.25,0,0,0-20.65,1.44l-3.16.57q-9,1.86-29.69,9.47V328.68H1649V170.9h39.59l1.58,3.59a59,59,0,0,1,2.58,7.89l11.19-4.16a229.46,229.46,0,0,1,23.23-6.46A115.5,115.5,0,0,1,1745.7,169.47Z"/><path id="_复合路径_10" data-name="&lt;复合路径&gt;" class="cls-1" d="M1897.31,232.29v96.39h-40l-.43-1.43c-.19-.67-.34-1.15-.43-1.44a22.79,22.79,0,0,1-1-3.3l-.43-3.58q-22.08,11.47-43.17,11.47h-4.16q-21.66,0-34.42-16.64a52.3,52.3,0,0,1-8.47-29.11V283.5q0-28.4,19.94-37.72,8.18-5.46,41.45-5.45h22.67V235q0-16.35-4.74-18.79-5.16-3.87-18.21-3.87H1780.7l4.3-40h48.48q46.32,0,57.37,22.95Q1897.32,208.63,1897.31,232.29Zm-64.69,40q-14.05,0-17.07,2.87-2.29,2.44-2.3,8.32,0,12.9,13.2,12.91,7.89,0,22.38-6.46V272.31Z"/><path id="_复合路径_11" data-name="&lt;复合路径&gt;" class="cls-1" d="M2024.68,329.25h-24.53q-7.45,0-12.77-.43-14.19-1-23.23-5.3a36.2,36.2,0,0,1-16.78-16.21q-6.46-12.33-6.46-33l-.28-62H1917.1V172.05h23.53V133l48.19-8.18v47.19h36.72l-5,40.31h-31.7v59.23c0,1.34,0,2.49.14,3.45a24.52,24.52,0,0,0,1.15,6.16q2.15,5.9,9.18,8.18,5.45,2.3,15.35,3.73c1.14.19,2.34.34,3.58.43l3,.29,3.45.14Z"/><path id="_复合路径_12" data-name="&lt;复合路径&gt;" class="cls-1" d="M2180,235.88v28.83q0,45-32.28,59.24-16.2,6.74-38.29,6.74-48.19,0-62.83-31.41-6.73-13-6.74-32V232.87q0-45.9,39.59-58.67a101.16,101.16,0,0,1,28.26-4.44h4.73q49.34,0,63.68,37.57Q2180,218.82,2180,235.88Zm-48.2-1.72q0-18.79-10.61-21.8c-2.11-1.15-5.21-1.73-9.32-1.73H2108q-12.9,0-18.21,10.48a32.49,32.49,0,0,0-1.44,10v39.3q0,20.37,21.09,20.36h1.29q16.78,0,20.8-14.77l.14-3.73v-.57Z"/><path id="_复合路径_13" data-name="&lt;复合路径&gt;" class="cls-1" d="M2291.32,169.47l4.73,41.45a77.29,77.29,0,0,0-20.65,1.44l-3.15.57q-9,1.86-29.7,9.47V328.68h-47.9V170.9h39.58l1.58,3.59a59,59,0,0,1,2.58,7.89l11.19-4.16a229,229,0,0,1,23.24-6.46A115.21,115.21,0,0,1,2291.32,169.47Z"/></g></g></g></svg>