<?xml version="1.0" standalone="no"?><!DOCTYPE svg PUBLIC "-//W3C//DTD SVG 1.1//EN" "http://www.w3.org/Graphics/SVG/1.1/DTD/svg11.dtd"><svg t="1572579519769" class="icon" viewBox="0 0 3840 1024" version="1.1" xmlns="http://www.w3.org/2000/svg" p-id="869" xmlns:xlink="http://www.w3.org/1999/xlink" width="750" height="200"><defs><style type="text/css"></style></defs><path d="M2256.034909 249.844364a38.458182 38.458182 0 0 0-37.841454 30.592l-135.214546 386.327272-132.957091-385.373091a41.739636 41.739636 0 0 0-40.948363-31.546181h-4.200728a40.273455 40.273455 0 0 0-38.772363 31.546181l-134.016 385.431273-133.108364-384.360727a41.320727 41.320727 0 0 0-39.947636-32.581818 38.830545 38.830545 0 0 0-39.842909 37.690182 73.309091 73.309091 0 0 0 5.108363 21.457454l160.581818 446.056727c8.238545 23.354182 24.541091 35.618909 43.927273 35.618909h2.152727c20.410182 0 35.816727-12.264727 42.973091-35.618909l133.085091-379.054545 131.933091 379.054545c7.214545 23.354182 22.586182 35.618909 43.054546 35.618909h3.060363c18.455273 0 34.757818-12.264727 43.054546-35.618909l161.664-447.080727a75.52 75.52 0 0 0 5.108363-21.457454 37.736727 37.736727 0 0 0-38.853818-36.701091z m861.195636 0c-57.204364 0-143.522909 41.495273-182.446545 129.396363v-90.484363a39.307636 39.307636 0 0 0-40.017455-39.912728 39.738182 39.738182 0 0 0-38.888727 39.912728v461.370181a39.458909 39.458909 0 1 0 78.906182 0v-179.2c0-152.354909 83.979636-229.073455 186.519273-241.338181a38.993455 38.993455 0 0 0 34.909091-39.831273 37.899636 37.899636 0 0 0-38.981819-39.889455z m282.309819-1.384728c-143.650909 0-249.157818 121.425455-249.157819 272.151273v2.094546c0 161.838545 116.514909 272.197818 259.2 272.197818a263.109818 263.109818 0 0 0 195.816728-78.987637 33.186909 33.186909 0 0 0 12.148363-25.204363 33.419636 33.419636 0 0 0-56.296727-24.436364 211.374545 211.374545 0 0 1-149.608727 60.718546c-92.532364 0-171.834182-63.720727-182.784-176.954182h375.540363a36.305455 36.305455 0 0 0 36.200728-36.538182c0-138.647273-87.470545-265.018182-241.058909-265.018182z m-170.728728 243.898182c9.925818-102.237091 78.231273-178.036364 168.634182-178.036363 103.482182 0 157.754182 82.885818 165.818182 178.036363h-334.452364zM2535.563636 249.960727c-67.421091 0-106.658909 7.482182-158.708363 30.010182a32.500364 32.500364 0 0 0-21.515637 32.686546 34.978909 34.978909 0 0 0 34.839273 33.640727 39.656727 39.656727 0 0 0 14.184727-3.095273 268.602182 268.602182 0 0 1 123.031273-24.040727c99.037091 0 157.463273 49.000727 157.463273 143.709091v18.432a560.488727 560.488727 0 0 0-162.618182-22.504728c-133.818182 0-225.861818 59.182545-225.861818 170.251637v2.048c0 108.043636 99.246545 164.072727 197.434182 164.072727a231.796364 231.796364 0 0 0 191.069091-90.763636v50.269091a36.072727 36.072727 0 0 0 37.573818 36.689454 37.352727 37.352727 0 0 0 37.934545-38.714182V461.963636c0-67.304727-18.408727-118.260364-54.248727-153.914181-38.818909-38.772364-96.104727-58.088727-170.577455-58.088728z m150.295273 340.363637c0 83.490909-79.790545 142.638545-176.872727 142.638545-71.633455 0-132.887273-38.737455-132.887273-104.971636v-2.024728c0-66.187636 55.272727-109.044364 154.274909-109.044363a554.891636 554.891636 0 0 1 155.450182 22.423273v50.967272zM1296.744727 238.626909a242.734545 242.734545 0 0 0-167.563636 71.086546c-34.292364-44.346182-81.570909-70.981818-161.594182-70.981819-84.433455 0-158.336 70.981818-158.336 70.981819a189.521455 189.521455 0 0 0-141.125818-70.981819c-74.833455 0-134.260364 32.814545-170.507636 115.479273l-107.054546 251.752727-137.448727-323.013818a74.600727 74.600727 0 0 0-100.072727-37.236363 72.832 72.832 0 0 0-36.64291 99.80509L284.16 709.026909c26.379636 57.018182 54.178909 86.830545 106.344727 86.830546 55.738182 0 80.034909-32.523636 106.391273-86.830546l147.781818-320.954182a21.154909 21.154909 0 0 1 21.073455-13.533091A23.272727 23.272727 0 0 1 688.872727 398.08V708.654545c0 47.872 26.624 87.156364 77.858909 87.156364s78.859636-39.272727 78.859637-87.156364V454.516364c0-49.024 35.223273-80.837818 83.234909-80.837819A76.276364 76.276364 0 0 1 1008.872727 454.516364V708.654545c0 47.872 26.763636 87.156364 77.858909 87.156364s79.010909-39.272727 79.010909-87.156364V454.516364c0-49.024 35.083636-80.837818 83.118546-80.837819a76.346182 76.346182 0 0 1 80.011636 80.837819V708.654545c0 47.872 26.693818 87.156364 77.882182 87.156364s78.941091-39.272727 78.941091-87.156364V419.409455c-0.058182-106.309818-85.841455-180.782545-188.951273-180.782546z m2415.557818 9.844364a65.629091 65.629091 0 0 0-65.314909 65.524363v0.442182a64.965818 64.965818 0 0 0 65.314909 65.163637 65.629091 65.629091 0 0 0 65.44291-65.652364v-0.209455a65.163636 65.163636 0 0 0-65.44291-65.256727z m52.875637 65.524363a52.922182 52.922182 0 1 1-105.832727 0.337455v-0.325818a52.922182 52.922182 0 1 1 105.832727-0.174546v0.174546z m-49.035637-32.756363h-21.806545a6.981818 6.981818 0 0 0-7.04 6.981818v49.757091a6.981818 6.981818 0 0 0 7.04 6.923636 6.830545 6.830545 0 0 0 6.923636-6.923636v-13.754182h11.124364l13.568 17.117091a8.564364 8.564364 0 0 0 6.842182 3.584 6.481455 6.481455 0 0 0 6.597818-6.388364 8.308364 8.308364 0 0 0-2.245818-5.341091l-9.634909-11.706181a19.374545 19.374545 0 0 0 12.637091-19.211637v-0.197818a19.607273 19.607273 0 0 0-5.550546-14.382545 24.773818 24.773818 0 0 0-18.455273-6.458182z m9.751273 21.748363a9.029818 9.029818 0 0 1-10.530909 8.925091h-14.149818v-18.187636h13.963636a9.088 9.088 0 0 1 10.775273 9.041454v0.221091z" fill="" p-id="870"></path></svg>