<?xml version="1.0" standalone="no"?><!DOCTYPE svg PUBLIC "-//W3C//DTD SVG 1.1//EN" "http://www.w3.org/Graphics/SVG/1.1/DTD/svg11.dtd"><svg t="1572581196813" class="icon" viewBox="0 0 1024 1024" version="1.1" xmlns="http://www.w3.org/2000/svg" p-id="9883" xmlns:xlink="http://www.w3.org/1999/xlink" width="200" height="200"><defs><style type="text/css"></style></defs><path d="M85.333333 362.666667v-128A64 64 0 0 1 149.333333 170.666667h682.666667A64 64 0 0 1 896 234.666667v128c0 16.384-6.186667 31.36-16.298667 42.666666 10.112 11.306667 16.298667 26.282667 16.298667 42.666667v128c0 16.384-6.186667 31.36-16.298667 42.666667 10.112 11.306667 16.298667 26.282667 16.298667 42.666666v128a64 64 0 0 1-64 64h-682.666667A64 64 0 0 1 85.333333 789.333333v-128c0-16.384 6.186667-31.36 16.298667-42.666666a63.744 63.744 0 0 1-16.298667-42.666667v-128c0-16.384 6.186667-31.36 16.298667-42.666667A63.744 63.744 0 0 1 85.333333 362.666667z m64 21.333333h682.666667a21.333333 21.333333 0 0 0 21.333333-21.333333v-128a21.333333 21.333333 0 0 0-21.333333-21.333334h-682.666667a21.333333 21.333333 0 0 0-21.333333 21.333334v128a21.333333 21.333333 0 0 0 21.333333 21.333333z m682.666667 42.666667h-682.666667a21.333333 21.333333 0 0 0-21.333333 21.333333v128a21.333333 21.333333 0 0 0 21.333333 21.333333h682.666667a21.333333 21.333333 0 0 0 21.333333-21.333333v-128a21.333333 21.333333 0 0 0-21.333333-21.333333z m0 213.333333h-682.666667a21.333333 21.333333 0 0 0-21.333333 21.333333v128a21.333333 21.333333 0 0 0 21.333333 21.333334h682.666667a21.333333 21.333333 0 0 0 21.333333-21.333334v-128a21.333333 21.333333 0 0 0-21.333333-21.333333z m-42.666667-128a42.666667 42.666667 0 1 1-85.333333 0 42.666667 42.666667 0 0 1 85.333333 0z m0-213.333333a42.666667 42.666667 0 1 1-85.333333 0 42.666667 42.666667 0 0 1 85.333333 0z m0 426.666666a42.666667 42.666667 0 1 1-85.333333 0 42.666667 42.666667 0 0 1 85.333333 0z m-128-213.333333a42.666667 42.666667 0 1 1-85.333333 0 42.666667 42.666667 0 0 1 85.333333 0z m0-213.333333a42.666667 42.666667 0 1 1-85.333333 0 42.666667 42.666667 0 0 1 85.333333 0z m0 426.666666a42.666667 42.666667 0 1 1-85.333333 0 42.666667 42.666667 0 0 1 85.333333 0z" fill="#8a8a8a" p-id="9884"></path></svg>