<?xml version="1.0" encoding="iso-8859-1"?>
<!-- Generator: Adobe Illustrator 18.0.0, SVG Export Plug-In . SVG Version: 6.00 Build 0)  -->
<!DOCTYPE svg PUBLIC "-//W3C//DTD SVG 1.1//EN" "http://www.w3.org/Graphics/SVG/1.1/DTD/svg11.dtd">
<svg version="1.1" id="Capa_1" xmlns="http://www.w3.org/2000/svg" xmlns:xlink="http://www.w3.org/1999/xlink" x="0px" y="0px"
	 viewBox="0 0 60 60" style="enable-background:new 0 0 60 60;" xml:space="preserve">
<g>
	<rect x="20" y="12" style="fill:#E57E25;" width="10" height="45"/>
	<rect x="33" y="43" style="fill:#26B99A;" width="10" height="14"/>
	<rect x="46" y="34" style="fill:#26B99A;" width="10" height="23"/>
	<rect x="7" y="20" style="fill:#26B99A;" width="10" height="37"/>
	<path style="fill:#556080;" d="M3,60c-0.553,0-1-0.447-1-1V1c0-0.553,0.447-1,1-1s1,0.447,1,1v58C4,59.553,3.553,60,3,60z"/>
	<path style="fill:#556080;" d="M59,58H1c-0.553,0-1-0.447-1-1s0.447-1,1-1h58c0.553,0,1,0.447,1,1S59.553,58,59,58z"/>
</g>
<g>
</g>
<g>
</g>
<g>
</g>
<g>
</g>
<g>
</g>
<g>
</g>
<g>
</g>
<g>
</g>
<g>
</g>
<g>
</g>
<g>
</g>
<g>
</g>
<g>
</g>
<g>
</g>
<g>
</g>
</svg>
